Coordinates
version=1
nRows=29
nColumns=24
inDegrees=yes

Units are S.I. units (second, meters, Newtons, ...)
Angles are in degrees.

endheader
time	pelvis_tilt	pelvis_list	pelvis_rotation	pelvis_tx	pelvis_ty	pelvis_tz	hip_flexion_r	hip_adduction_r	hip_rotation_r	knee_angle_r	ankle_angle_r	subtalar_angle_r	mtp_angle_r	hip_flexion_l	hip_adduction_l	hip_rotation_l	knee_angle_l	ankle_angle_l	subtalar_angle_l	mtp_angle_l	lumbar_extension	lumbar_bending	lumbar_rotation
      0.58400000	     -5.48430173	      3.24143924	      6.37262702	     -0.83426716	      0.99739180	      0.26338335	     31.48459979	     -2.34509539	     -8.44432886	      0.58368827	      5.19554776	      0.52801268	      4.11371962	    -11.67270327	      7.49311651	      6.38704682	     -4.80394833	     14.99955961	     -1.85746631	     -4.32853946	      0.22508413	     -7.25540733	     -8.12155412
      0.58816667	     -5.42749711	      3.10325003	      6.35709624	     -0.82813355	      0.99676939	      0.26338940	     31.56021244	     -2.12817684	     -8.21423403	     -0.31793575	      5.34847458	      0.16546064	      4.13710519	    -11.92845794	      7.31984740	      6.32287074	     -5.12783398	     15.09527624	     -1.79669045	     -4.33605076	      0.25971040	     -7.06209881	     -8.14305270
      0.59233333	     -5.36686966	      2.94810271	      6.35524294	     -0.82193011	      0.99618342	      0.26339326	     31.59749641	     -1.89188817	     -7.93066293	     -1.17663938	      5.33144971	     -0.41139610	      4.18316238	    -12.15124384	      7.12109778	      6.12581515	     -5.53627129	     15.23601362	     -1.55387833	     -4.34164452	      0.29467851	     -6.84539368	     -8.15312193
      0.59650000	     -5.30018494	      2.80079207	      6.34337830	     -0.81567143	      0.99562703	      0.26342996	     31.62261534	     -1.65476382	     -7.62340294	     -2.05030571	      5.31090851	     -0.96754886	      4.22484661	    -12.39506843	      6.93269915	      5.98254865	     -5.91411178	     15.31026652	     -1.41411237	     -4.33529833	      0.33120530	     -6.65258478	     -8.18044280
      0.60066667	     -5.23684095	      2.63862678	      6.33621052	     -0.80934789	      0.99509591	      0.26347202	     31.62538313	     -1.39811210	     -7.28179275	     -2.88316402	      5.18493236	     -1.62068504	      4.27205617	    -12.62660957	      6.72751317	      5.83297732	     -6.31462598	     15.37338783	     -1.25861732	     -4.31213893	      0.38388163	     -6.43155337	     -8.20520619
      0.60483333	     -5.17267091	      2.47228849	      6.33142302	     -0.80295957	      0.99460337	      0.26353064	     31.60655552	     -1.13139187	     -6.91999446	     -3.68140347	      4.97933524	     -2.32575453	      4.32288241	    -12.85841403	      6.51504795	      5.68158850	     -6.71291623	     15.40532414	     -1.09706284	     -4.27472938	      0.43954542	     -6.21070673	     -8.23608476
      0.60900000	     -5.10091271	      2.29960817	      6.31930032	     -0.79650641	      0.99414430	      0.26361491	     31.55960391	     -0.84733446	     -6.52126153	     -4.43849552	      4.69784093	     -3.08139773	      4.37643029	    -13.09824746	      6.29557725	      5.53488973	     -7.11308348	     15.39942016	     -0.95793022	     -4.22453260	      0.50453327	     -5.97406715	     -8.27305961
      0.61316667	     -5.05662389	      2.11941244	      6.32479761	     -0.79001327	      0.99369487	      0.26371897	     31.52020434	     -0.55835301	     -6.13408027	     -5.14300571	      4.30240567	     -3.89484026	      4.43482764	    -13.28682313	      6.06348460	      5.37342927	     -7.56064507	     15.38039151	     -0.80193389	     -4.15892504	      0.60119044	     -5.74552162	     -8.31685018
      0.61733333	     -4.99078804	      1.95726126	      6.34085780	     -0.78350814	      0.99332199	      0.26382712	     31.44091779	     -0.28507732	     -5.73858559	     -5.80275302	      3.80893606	     -4.76875004	      4.51548910	    -13.48229478	      5.84432232	      5.20799684	     -8.03685903	     15.32902096	     -0.64209278	     -4.05729109	      0.66660799	     -5.54970752	     -8.35094808
      0.62150000	     -4.93395766	      1.77346609	      6.34973531	     -0.77692162	      0.99296556	      0.26396693	     31.35216062	      0.01734648	     -5.34305615	     -6.41208602	      3.23912910	     -5.64952725	      4.60825050	    -13.67017927	      5.60179412	      5.05525511	     -8.51013838	     15.23950707	     -0.49318649	     -3.93364570	      0.75671868	     -5.32291905	     -8.39622059
      0.62566667	     -4.88818872	      1.59142689	      6.36754289	     -0.77029859	      0.99264157	      0.26411937	     31.25906589	      0.31730521	     -4.95534017	     -6.97616854	      2.58520280	     -6.55138489	      4.71338789	    -13.83145472	      5.35720128	      4.89021686	     -9.00696687	     15.11415332	     -0.34109797	     -3.78497335	      0.87337729	     -5.09948455	     -8.44574224
      0.62983333	     -4.84940778	      1.40582317	      6.39369415	     -0.76363306	      0.99235476	      0.26428305	     31.15841778	      0.61785700	     -4.58776259	     -7.49780163	      1.85576932	     -7.44978405	      4.83498971	    -13.96800609	      5.10430523	      4.72740877	     -9.53640882	     14.95910596	     -0.18524161	     -3.60587149	      1.00287481	     -4.87900688	     -8.49763897
      0.63400000	     -4.82162605	      1.21768829	      6.42644945	     -0.75692952	      0.99209723	      0.26445512	     31.05766162	      0.91732244	     -4.24591678	     -7.98381740	      1.06034126	     -8.33772379	      4.96711875	    -14.08406443	      4.84615387	      4.58602066	    -10.08052544	     14.76173187	     -0.04282446	     -3.40196232	      1.15257600	     -4.65635507	     -8.55518325
      0.63816667	     -4.79262811	      1.03125707	      6.46410298	     -0.75019660	      0.99189067	      0.26464303	     30.94594420	      1.21195330	     -3.92756533	     -8.44238994	      0.22234116	     -9.19636670	      5.11464699	    -14.17553750	      4.58374774	      4.41892200	    -10.66692911	     14.53411635	      0.12239980	     -3.16256119	      1.30256679	     -4.44223645	     -8.61263406
      0.64233333	     -4.77874931	      0.84442747	      6.49521292	     -0.74343729	      0.99168936	      0.26485291	     30.85407032	      1.50244581	     -3.65979164	     -8.89596081	     -0.66981843	     -9.95777269	      7.11822159	    -14.23426352	      4.31499694	      4.19123511	    -11.27570442	     14.18671456	      0.33926313	     -0.01201770	      1.47347975	     -4.22150686	     -8.66754767
      0.64650000	     -4.73852291	      0.65603616	      6.55850844	     -0.73665945	      0.99160825	      0.26503478	     30.71286736	      1.78243376	     -3.42680271	     -9.30946335	     -1.54018756	    -10.74448392	      7.11261535	    -14.31031258	      4.04132938	      4.10954462	    -11.90531120	     13.85907925	      0.40597118	      0.04890180	      1.61702170	     -4.01584635	     -8.72761154
      0.65066667	     -4.73756269	      0.47142779	      6.61746686	     -0.72987025	      0.99151005	      0.26523404	     30.61761326	      2.05292451	     -3.20352060	     -9.73064212	     -2.40480439	    -11.47182774	      7.13039929	    -14.31271158	      3.76927026	      3.96147775	    -12.59103937	     13.49974161	      0.55830128	      0.17135574	      1.81088726	     -3.81433893	     -8.79108616
      0.65483333	     -4.71336937	      0.28501389	      6.67721904	     -0.72306318	      0.99149059	      0.26545307	     30.49624909	      2.32317328	     -3.02047064	    -10.15060090	     -3.23795709	    -12.14143093	      7.16766629	    -14.32042592	      3.48631428	      3.79979430	    -13.30363775	     13.10968096	      0.73531058	      0.35575467	      1.97776284	     -3.61212887	     -8.84858358
      0.65900000	     -4.70728673	      0.09780036	      6.74584045	     -0.71624469	      0.99150383	      0.26566880	     30.39484073	      2.58216752	     -2.87441780	    -10.57783133	     -4.02764904	    -12.75061451	      7.21782877	    -14.27930561	      3.19806052	      3.63758434	    -14.06320797	     12.66159294	      0.91026227	      0.60230947	      2.17164071	     -3.41336280	     -8.91093153
      0.66316667	     -4.67947369	     -0.08705927	      6.81172976	     -0.70942905	      0.99158347	      0.26590564	     30.27563412	      2.83848764	     -2.75293387	    -11.02193145	     -4.75963034	    -13.31740023	      7.28411349	    -14.23800988	      2.90315391	      3.45203743	    -14.85883216	     12.17567363	      1.11496214	      0.94073441	      2.33772208	     -3.21796156	     -8.96493186
      0.66733333	     -4.65388803	     -0.26869314	      6.88311913	     -0.70261542	      0.99171743	      0.26613951	     30.17327196	      3.07527973	     -2.71567854	    -11.50669539	     -5.38552913	    -13.68968207	      8.13085509	    -14.16014822	      2.59971577	      3.22557013	    -15.69116331	     11.55884074	      1.36598664	      5.21358448	      2.50273543	     -3.02930120	     -8.97476491
      0.67150000	     -4.63473932	     -0.45229335	      6.95645157	     -0.69579709	      0.99189145	      0.26637140	     30.07424020	      3.31306392	     -2.65685025	    -11.99674053	     -5.93100284	    -14.11953519	      8.11456422	    -14.06380260	      2.30108727	      3.07600499	    -16.54785523	     10.94197012	      1.47276267	      5.28420244	      2.68980435	     -2.82795693	     -9.06132553
      0.67566667	     -4.60116930	     -0.63485853	      7.02688343	     -0.68899472	      0.99212652	      0.26662387	     29.96938851	      3.54800215	     -2.62668571	    -12.51765722	     -6.39887010	    -14.49353431	      8.09758081	    -13.94543454	      1.98966986	      2.86260586	    -17.45856643	     10.30690907	      1.70335945	      5.45299289	      2.84825350	     -2.63615226	     -9.10562503
      0.67983333	     -4.55059876	     -0.80901081	      7.10486701	     -0.68222150	      0.99243568	      0.26688925	     29.85274623	      3.77020636	     -2.61931832	    -13.06546430	     -6.76423247	    -14.83037742	      8.07120710	    -13.81246171	      1.67385801	      2.64429165	    -18.41260707	      9.61628527	      2.00003471	      5.82831763	      2.97581690	     -2.45691364	     -9.14314697
      0.68400000	     -4.47634103	     -0.97720534	      7.16486587	     -0.67545074	      0.99282158	      0.26713874	     29.73209033	      3.97873603	     -2.69812882	    -13.67513360	     -6.93209403	    -14.91169621	      8.06218568	    -13.69536795	      1.37281634	      2.45675252	    -19.37094433	      8.81033020	      2.08100981	      5.90405573	      3.09336371	     -2.27613750	     -9.14650252
      0.68816667	     -4.43527238	     -1.16849317	      7.23002029	     -0.66870889	      0.99318742	      0.26746114	     29.62727141	      4.22126292	     -2.68650831	    -14.24149679	     -7.14768460	    -15.18317141	      7.63241266	    -13.48352750	      1.01897532	      2.15813252	    -20.41026671	      7.93414400	      2.36495743	     10.82062096	      3.23364658	     -2.08022946	     -9.16908238
      0.69233333	     -4.36619855	     -1.33648318	      7.28484463	     -0.66199667	      0.99364552	      0.26776705	     29.50812426	      4.43391974	     -2.74141912	    -14.86297311	     -7.15856936	    -15.23369399	      7.62822793	    -13.29049094	      0.69711981	      1.91870811	    -21.46166324	      7.04215620	      2.57046358	     10.84793878	      3.33604713	     -1.89742212	     -9.18316351
      0.69650000	     -4.31058457	     -1.50758002	      7.33551948	     -0.65533239	      0.99409004	      0.26811115	     29.41748786	      4.64690461	     -2.82330994	    -15.51878642	     -7.08837406	    -15.27886520	      7.60375381	    -13.03236605	      0.35351777	      1.60370161	    -22.60018542	      6.20091929	      2.90591942	     10.99900473	      3.45529450	     -1.72547156	     -9.19983655
      0.70066667	     -4.19799403	     -1.66296925	      7.38804715	     -0.64870296	      0.99467350	      0.26844617	     29.25017337	      4.85101732	     -2.90899838	    -16.15078958	     -6.97650909	    -15.35874304	      7.59367916	    -12.82770125	      0.02558655	      1.36229167	    -23.71766388	      5.17898408	      3.08075265	     11.05483950	      3.50340565	     -1.55226399	     -9.18725256
